<?xml version="1.0" standalone="no"?>
<!DOCTYPE svg PUBLIC "-//W3C//DTD SVG 20010904//EN"
 "http://www.w3.org/TR/2001/REC-SVG-20010904/DTD/svg10.dtd">
<svg version="1.0" xmlns="http://www.w3.org/2000/svg"
 width="64.000000pt" height="64.000000pt" viewBox="0 0 64.000000 64.000000"
 preserveAspectRatio="xMidYMid meet">

<g transform="translate(0.000000,64.000000) scale(0.100000,-0.100000)"
fill="#000000" stroke="none">
<path d="M15 607 c-3 -7 -4 -140 -3 -297 l3 -285 225 0 225 0 0 295 0 295 -62
3 c-52 2 -63 0 -63 -13 0 -11 12 -15 50 -15 l50 0 0 -270 0 -270 -200 0 -200
0 0 270 0 270 50 0 c38 0 50 4 50 15 0 20 -118 22 -125 2z"/>
<path d="M160 590 l0 -30 80 0 80 0 0 30 0 30 -80 0 -80 0 0 -30z"/>
<path d="M60 320 l0 -250 180 0 180 0 0 250 0 250 -39 0 c-25 0 -41 -5 -45
-15 -4 -12 -25 -15 -96 -15 -71 0 -92 3 -96 15 -4 10 -20 15 -45 15 l-39 0 0
-250z m135 130 l0 -55 -57 -3 -58 -3 0 54 c0 29 3 57 7 61 4 4 30 6 58 4 l50
-3 0 -55z m200 20 c4 -6 -28 -10 -90 -10 -62 0 -94 4 -90 10 3 6 44 10 90 10
46 0 87 -4 90 -10z m-55 -40 c0 -6 -27 -10 -60 -10 -33 0 -60 4 -60 10 0 6 27
10 60 10 33 0 60 -4 60 -10z m-140 -125 l0 -55 -60 0 -60 0 0 55 0 55 60 0 60
0 0 -55z m200 15 c0 -6 -37 -10 -90 -10 -53 0 -90 4 -90 10 0 6 37 10 90 10
53 0 90 -4 90 -10z m-60 -30 c0 -6 -27 -10 -60 -10 -33 0 -60 4 -60 10 0 6 27
10 60 10 33 0 60 -4 60 -10z m-145 -130 l0 -55 -57 -3 -58 -3 0 54 c0 29 3 57
7 61 4 4 30 6 58 4 l50 -3 0 -55z m198 15 c-3 -12 -173 -19 -173 -7 0 5 3 12
7 16 11 11 168 2 166 -9z m-53 -35 c0 -6 -27 -10 -60 -10 -33 0 -60 4 -60 10
0 6 27 10 60 10 33 0 60 -4 60 -10z"/>
<path d="M100 450 l0 -40 40 0 40 0 0 40 0 40 -40 0 -40 0 0 -40z m53 -1 c-20
-20 -50 -19 -37 2 3 5 9 7 14 4 5 -3 11 -1 15 5 3 5 11 10 18 10 6 0 2 -10
-10 -21z"/>
<path d="M100 305 c0 -34 1 -35 40 -35 39 0 40 1 40 35 0 34 -1 35 -40 35 -39
0 -40 -1 -40 -35z m52 -7 c-11 -11 -25 -17 -31 -14 -17 11 -13 20 12 32 32 15
42 5 19 -18z"/>
<path d="M100 161 l0 -41 41 0 40 0 -3 38 c-3 35 -5 37 -40 40 l-38 3 0 -40z
m60 -1 c-11 -20 -31 -26 -43 -13 -4 3 3 12 16 19 32 18 39 16 27 -6z"/>
<path d="M526 484 c-27 -27 -20 -44 19 -44 27 0 35 4 35 18 0 18 -18 42 -31
42 -4 0 -15 -7 -23 -16z"/>
<path d="M608 375 c5 -84 22 -84 22 0 0 45 -4 65 -12 65 -10 0 -12 -18 -10
-65z"/>
<path d="M517 413 c-4 -3 -7 -69 -7 -145 l0 -138 35 0 35 0 0 145 0 145 -28 0
c-16 0 -32 -3 -35 -7z"/>
<path d="M520 105 c0 -11 24 -55 30 -55 6 0 30 44 30 55 0 3 -13 5 -30 5 -16
0 -30 -2 -30 -5z"/>
</g>
</svg>
